<svg width="191" height="28" viewBox="0 0 191 28" fill="none" xmlns="http://www.w3.org/2000/svg">
<path d="M24.2845 11.6825L18.9603 8.88635L15.3215 6.93286C15.3215 7.00947 15.3215 7.08608 15.3215 7.16268C15.3215 8.23519 15.3215 9.30769 15.3598 10.4185C15.3598 10.4568 15.3598 10.4951 15.3598 10.5334L18.2709 12.0656L18.9986 12.4486C20.1094 13.0615 20.1477 14.517 18.9986 15.1299L15.7428 16.8535L15.4747 17.0067C15.4747 17.0833 15.4747 17.1599 15.4747 17.2366C15.4747 17.3132 15.4747 17.3898 15.4747 17.4281C15.4747 17.7728 15.4747 18.1175 15.4747 18.4623C15.4747 19.19 15.4747 19.8795 15.4747 20.6073L15.7811 20.4541L24.2845 15.9725C26.0848 15.0149 26.0848 12.6401 24.2845 11.6825Z" fill="#2A1CA7"/>
<path d="M12.5636 19.0369C12.6019 20.0711 12.6019 21.1053 12.6019 22.1395L3.37072 27.004H3.33242C1.83858 27.7318 0 26.7359 0 25.1655V23.4801V4.13674V2.41308C0 1.37888 0.72777 0.727716 1.68536 0.536197C2.41313 0.382982 3.17921 0.536197 3.83037 0.88093L12.5253 5.47737L12.87 5.66889C12.6402 6.70309 12.487 7.7756 12.4104 8.8481C12.4104 8.8864 12.4104 8.92471 12.4104 8.92471V8.96301L11.6443 8.54167L5.93707 5.51568C5.93707 5.51568 5.93707 5.51568 5.89877 5.51568C5.43912 5.28585 4.90287 5.24755 4.44323 5.43907C3.83037 5.66889 3.37072 6.20514 3.37072 6.89461V20.6456C3.37072 21.3351 3.86867 21.9097 4.48153 22.1012C4.55814 22.1395 4.67305 22.1395 4.74966 22.1778C4.78796 22.1778 4.82626 22.1778 4.86457 22.1778C4.94118 22.1778 5.01778 22.1778 5.09439 22.1778C5.36252 22.1778 5.63064 22.1012 5.86047 21.9863L12.4487 18.5006V18.5389C12.5636 18.7305 12.5636 18.8837 12.5636 19.0369Z" fill="#2A1CA7"/>
<path d="M22.6758 1.30236C22.5992 1.18745 22.4459 1.11084 22.331 1.11084C22.1012 1.11084 21.8331 1.34066 21.4884 1.80031C21.3734 1.53218 21.2968 1.37897 21.1819 1.26405C21.067 1.14914 20.9904 1.11084 20.8372 1.11084C20.6074 1.11084 20.4158 1.22575 20.2626 1.45557C20.0711 1.6854 19.9945 1.91522 19.9945 2.22165C19.9945 2.41317 20.0328 2.56638 20.1477 2.68129C20.2626 2.7962 20.3775 2.87281 20.5308 2.87281C20.7989 2.87281 21.067 2.64299 21.3734 2.22165C21.4884 2.48977 21.565 2.64299 21.6416 2.7579C21.7182 2.83451 21.8331 2.91111 21.9863 2.91111C22.2161 2.91111 22.4076 2.7962 22.5609 2.56638C22.7524 2.33656 22.829 2.10674 22.829 1.80031C22.829 1.57048 22.7907 1.41727 22.6758 1.30236ZM20.5691 2.64299C20.4542 2.64299 20.3775 2.60468 20.3009 2.52808C20.2243 2.45147 20.186 2.33656 20.186 2.22165C20.186 2.03013 20.2626 1.83861 20.3775 1.6854C20.4925 1.53218 20.6074 1.45557 20.7606 1.45557C20.9521 1.45557 21.1053 1.6854 21.2968 2.10674C21.0287 2.45147 20.7989 2.64299 20.5691 2.64299ZM22.4459 2.29825C22.331 2.45147 22.2161 2.52808 22.0629 2.52808C21.9097 2.52808 21.7182 2.29825 21.5267 1.87691C21.7948 1.49388 22.0246 1.30236 22.2161 1.30236C22.331 1.30236 22.4076 1.34066 22.4842 1.41727C22.5992 1.53218 22.6375 1.64709 22.6375 1.80031C22.6375 1.95352 22.5609 2.14504 22.4459 2.29825Z" fill="#F68C28"/>
<path d="M7.12445 26.736L6.97124 26.2763C6.89463 26.0848 6.85633 26.0082 6.77972 26.0082C6.74142 26.0082 6.62651 26.0848 6.5116 26.238L6.5499 26.0848C6.66481 25.9316 6.77972 25.855 6.85633 25.855C6.97124 25.855 7.08615 25.9699 7.16276 26.238L7.27767 26.5444L7.5458 26.1997C7.73731 25.9699 7.89053 25.855 8.04374 25.855C8.08205 25.855 8.15865 25.855 8.19696 25.8933L8.04374 26.0848C8.00544 26.0848 8.00544 26.0465 7.96714 26.0465C7.89053 26.0465 7.73731 26.1614 7.50749 26.4295L7.35428 26.6211L7.5458 27.119C7.6224 27.3105 7.66071 27.3871 7.73731 27.3871C7.81392 27.3871 7.89053 27.3105 7.96714 27.1956L7.92883 27.3105C7.81392 27.4637 7.73731 27.5403 7.6224 27.5403C7.50749 27.5403 7.39258 27.4254 7.31597 27.2339L7.16276 26.8126L6.81802 27.2339C6.66481 27.4637 6.5116 27.5786 6.43499 27.5786C6.35838 27.5786 6.32008 27.5403 6.24347 27.4637L6.43499 27.2722C6.47329 27.3105 6.47329 27.3488 6.5116 27.3488C6.5882 27.3488 6.74142 27.1956 6.97124 26.9275L7.12445 26.736Z" fill="#F68C28"/>
<path d="M19.0752 2.41312C19.0369 2.52803 18.9603 2.64294 18.8837 2.71955C18.7305 2.91107 18.5007 3.06428 18.2708 3.14089C18.041 3.2175 17.7729 3.2558 17.5048 3.17919C16.8536 3.06428 16.3557 2.48973 16.2791 1.87687C16.2791 1.87687 16.2791 1.83856 16.2791 1.80026C16.2791 1.72365 16.2791 1.60874 16.2791 1.49383C16.0875 1.68535 16.0109 1.87687 15.9343 2.06839C15.9343 2.06839 15.9343 2.06839 15.9343 2.10669C15.8577 2.2599 15.6279 2.91107 15.513 3.2558C15.4747 3.2941 15.4747 3.37071 15.4747 3.44732V3.48562C15.4747 3.52393 15.4364 3.60053 15.4364 3.63884C15.3981 3.75375 15.3598 3.90696 15.3598 4.02187C15.1682 4.82625 15.1299 5.63063 15.1299 6.47331C15.1299 6.51161 15.1299 6.54992 15.1299 6.58822C15.1299 7.73733 15.1299 8.92475 15.1682 10.0739C15.2065 12.2189 15.2832 14.4022 15.3215 16.5472C15.3215 16.5855 15.3215 16.6238 15.3215 16.7004C15.3215 17.1217 15.3215 17.5048 15.3598 17.9261C15.3598 18.6922 15.3598 19.42 15.3598 20.186C15.3215 21.1053 15.2832 21.9863 15.1299 22.9056C15.0533 23.4802 14.9384 24.093 14.7469 24.6676C14.5554 25.0889 14.3256 25.5485 14.0574 25.9316C13.6744 26.5061 13.2148 27.0041 12.6402 27.3488C12.2955 27.5786 11.9124 27.7319 11.4911 27.8468C11.4528 27.8468 11.3762 27.8851 11.3379 27.8851C11.2996 27.8851 11.2996 27.8851 11.2613 27.8851C11.223 27.8851 11.1847 27.8851 11.1081 27.9234C10.725 28 10.3037 27.9617 9.92064 27.7702C9.57591 27.6553 9.34608 27.4254 9.15457 27.1573C9.07796 27.0424 9.03966 26.9275 9.00135 26.8126C8.96305 26.6594 8.92474 26.5061 8.92474 26.3146C8.92474 26.1231 8.96305 25.9699 9.00135 25.7784C9.19287 25.2038 9.65251 24.7825 10.2271 24.7442C10.3803 24.7442 10.5718 24.7442 10.725 24.7825C11.2613 24.8974 11.6443 25.2804 11.7975 25.7784C11.8358 25.9699 11.8741 26.1997 11.7975 26.5061V26.5444C11.7975 26.5828 11.7592 26.6594 11.7592 26.6977C11.7975 26.6977 12.0273 26.6211 12.2572 26.3912C12.2955 26.3912 12.2955 26.3529 12.2955 26.3529C12.2955 26.3529 12.2955 26.3529 12.3338 26.3146C12.3721 26.2763 12.3721 26.2763 12.4104 26.238L12.4487 26.1997C12.5253 26.0848 12.6019 25.9699 12.6402 25.8167C12.6402 25.7784 12.6785 25.7401 12.6785 25.7401C12.7168 25.6252 12.7551 25.5102 12.7934 25.4336C12.8317 25.357 12.8317 25.2804 12.87 25.2038C13.1382 24.0547 13.0998 22.8673 13.1382 21.7182C13.1382 21.6033 13.1382 21.5267 13.1382 21.4118C13.1382 20.2243 13.0998 18.9986 13.0615 17.8112C12.9849 15.6662 12.87 13.4829 12.87 11.3379C12.87 10.5335 12.87 9.76743 12.9466 8.96305C13.0232 7.81394 13.1382 6.70313 13.3297 5.59233C13.368 5.3242 13.4446 5.05607 13.5212 4.74964C13.6744 4.09848 13.9042 3.44732 14.2107 2.83446C14.4788 2.2599 14.8235 1.72365 15.2832 1.26401C15.513 1.03419 15.7428 0.842668 15.9726 0.65115C16.3174 0.421327 16.6621 0.268113 17.0834 0.153202C17.1217 0.153202 17.16 0.153202 17.1983 0.153202C17.2366 0.153202 17.275 0.153202 17.3133 0.153202C18.041 0.0765941 18.6539 0.268113 19.1135 0.880972L19.1518 0.919275C19.305 1.30231 19.305 1.87687 19.0752 2.41312Z" fill="#F68C28"/>
<path d="M46.4624 21.565H42.7086V20.7989C42.2489 21.1819 41.7127 21.4884 41.1381 21.6416C40.5636 21.8331 39.989 21.9097 39.3379 21.9097C38.3037 21.9097 37.3461 21.7182 36.4651 21.2968C35.5841 20.8755 34.8563 20.301 34.2052 19.6115C33.5923 18.922 33.0944 18.0793 32.7496 17.16C32.4049 16.2408 32.2134 15.2449 32.2134 14.2107C32.2134 13.0999 32.4049 12.0657 32.8262 11.1464C33.2093 10.1888 33.7455 9.3844 34.435 8.69493C35.0862 8.00547 35.8522 7.43091 36.6949 7.04787C37.5376 6.66484 38.4186 6.43501 39.3379 6.43501C39.9507 6.43501 40.5636 6.51162 41.1764 6.70314C41.7893 6.85635 42.2872 7.12448 42.7086 7.43091V0.344727H46.424V21.565H46.4624ZM42.7469 17.5814V10.4952C42.5937 10.3803 42.3639 10.2654 42.1723 10.1505C41.9425 10.0356 41.7127 9.95895 41.4829 9.88235C41.2531 9.80574 41.0232 9.72913 40.7551 9.69083C40.5253 9.65252 40.2955 9.61422 40.1039 9.61422C39.4911 9.61422 38.9165 9.72913 38.4186 9.92065C37.9206 10.1505 37.461 10.4569 37.1163 10.8399C36.7332 11.223 36.4651 11.7209 36.2353 12.2955C36.0437 12.87 35.9288 13.4829 35.9288 14.1724C35.9288 14.8235 36.0437 15.4364 36.2353 16.0109C36.4268 16.5472 36.7332 17.0451 37.0779 17.4282C37.4227 17.8112 37.8823 18.1559 38.3803 18.3475C38.8782 18.5773 39.4528 18.6922 40.0273 18.6922C41.0232 18.6922 41.9042 18.3092 42.7469 17.5814Z" fill="#2A1CA7"/>
<path d="M61.4774 21.565H57.8003V20.7607C57.1491 21.2203 56.4596 21.5267 55.7319 21.68C55.0041 21.8332 54.2763 21.9481 53.5103 21.9481C52.7825 21.9481 52.1313 21.8332 51.5568 21.6417C50.9822 21.4118 50.4843 21.1054 50.0629 20.7224C49.6416 20.3393 49.2968 19.8414 49.067 19.3051C48.8372 18.7689 48.7223 18.156 48.7223 17.5049C48.7223 16.6622 48.9138 15.9344 49.2585 15.3215C49.6416 14.7087 50.1395 14.1724 50.7524 13.7511C51.3652 13.3298 52.1313 13.0233 52.974 12.8318C53.8167 12.6403 54.736 12.5254 55.6936 12.5254H57.8003C57.8003 11.6444 57.5321 10.9549 56.9576 10.457C56.383 9.95902 55.5786 9.6909 54.5444 9.6909C54.0465 9.6909 53.5103 9.76751 52.974 9.95902C52.4378 10.1505 51.9015 10.4953 51.3269 10.9932L49.1436 8.80991C49.9097 8.04384 50.829 7.46928 51.8632 7.08625C52.8974 6.66491 53.9699 6.47339 55.0424 6.47339C56.0766 6.47339 56.9576 6.6266 57.762 6.97134C58.5663 7.27777 59.2175 7.69911 59.6771 8.23536C60.3283 8.88652 60.788 9.61429 61.0178 10.4187C61.2859 11.223 61.4008 12.2572 61.4008 13.483V21.565H61.4774ZM57.8003 17.8879V15.1683H56.1149C55.617 15.1683 55.119 15.2066 54.6594 15.2832C54.1997 15.3598 53.8167 15.4748 53.472 15.628C53.1272 15.7812 52.8591 16.011 52.6676 16.2408C52.4761 16.509 52.3611 16.8154 52.3611 17.1601C52.3611 17.6581 52.5527 18.0794 52.974 18.4241C53.357 18.7306 53.8933 18.9221 54.5061 18.9221C55.0424 18.9221 55.5787 18.8455 56.1149 18.654C56.7278 18.4624 57.264 18.1943 57.8003 17.8879Z" fill="#2A1CA7"/>
<path d="M72.5472 21.2202C72.1642 21.45 71.7428 21.6416 71.2449 21.7565C70.7469 21.8714 70.249 21.948 69.751 21.948C68.8701 21.948 68.1423 21.8331 67.5677 21.6416C66.9549 21.4117 66.4952 21.1053 66.1505 20.6457C65.8058 20.186 65.5376 19.6498 65.3844 18.9603C65.2312 18.2708 65.1546 17.4665 65.1546 16.5472V10.0739H63.2011V8.42679C64.3885 7.92884 65.3461 7.20107 66.1122 6.24348C66.8783 5.28589 67.3762 4.02187 67.6443 2.45142H68.8318V6.77973H72.5472V10.1122H68.8318V16.8153C68.8318 17.1983 68.8701 17.5048 68.985 17.7346C69.0616 17.9644 69.2148 18.1559 69.368 18.3091C69.5212 18.4624 69.7127 18.539 69.9043 18.5773C70.0958 18.6156 70.3256 18.6539 70.5171 18.6539C70.8235 18.6539 71.1683 18.6156 71.5513 18.5007C71.9727 18.3858 72.3174 18.2325 72.5855 18.0027V21.2202H72.5472Z" fill="#2A1CA7"/>
<path d="M86.6813 21.565H83.0041V20.7607C82.353 21.2203 81.6635 21.5267 80.9357 21.68C80.208 21.8332 79.4802 21.9481 78.7141 21.9481C77.9863 21.9481 77.3352 21.8332 76.7606 21.6417C76.1861 21.4118 75.6881 21.1054 75.2668 20.7224C74.8454 20.3393 74.5007 19.8414 74.2709 19.3051C74.0411 18.7689 73.9261 18.156 73.9261 17.5049C73.9261 16.6622 74.1177 15.9344 74.4624 15.3215C74.8454 14.7087 75.3434 14.1724 75.9562 13.7511C76.5691 13.3298 77.3352 13.0233 78.1779 12.8318C79.0205 12.6403 79.9398 12.5254 80.8974 12.5254H83.0041C83.0041 11.6444 82.736 10.9549 82.1614 10.457C81.5869 9.95902 80.7825 9.6909 79.7483 9.6909C79.2504 9.6909 78.7141 9.76751 78.1779 9.95902C77.6416 10.1505 77.1054 10.4953 76.5308 10.9932L74.3475 8.80991C75.1136 8.04384 76.0329 7.46928 77.067 7.08625C78.1013 6.66491 79.1738 6.47339 80.2463 6.47339C81.2805 6.47339 82.1614 6.6266 82.9658 6.97134C83.7702 7.27777 84.4214 7.69911 84.881 8.23536C85.5322 8.88652 85.9918 9.61429 86.2216 10.4187C86.4898 11.223 86.6047 12.2572 86.6047 13.483V21.565H86.6813ZM83.0041 17.8879V15.1683H81.3188C80.8208 15.1683 80.3229 15.2066 79.8632 15.2832C79.4036 15.3598 79.0205 15.4748 78.6758 15.628C78.3311 15.7812 78.0629 16.011 77.8714 16.2408C77.6799 16.509 77.565 16.8154 77.565 17.1601C77.565 17.6581 77.7565 18.0794 78.1779 18.4241C78.5609 18.7306 79.0971 18.9221 79.71 18.9221C80.2463 18.9221 80.7825 18.8455 81.3188 18.654C81.9316 18.4624 82.4679 18.1943 83.0041 17.8879Z" fill="#2A1CA7"/>
<path d="M97.7893 3.71546C97.4446 3.56224 97.0999 3.48564 96.8317 3.44733C96.5636 3.40903 96.2572 3.37073 95.9508 3.37073C95.223 3.37073 94.725 3.52394 94.4186 3.86867C94.1122 4.1751 93.959 4.78796 93.959 5.63064V6.81806H96.2955V10.0356H93.959V21.565H90.2818V10.0356H88.4815V6.81806H90.2818V5.70725C90.2818 3.86867 90.6265 2.45144 91.316 1.45554C92.0055 0.497948 93.2312 0 94.9549 0C95.9507 0 96.87 0.114911 97.751 0.344733V3.71546H97.7893Z" fill="#2A1CA7"/>
<path d="M113.647 14.1724C113.647 15.2832 113.456 16.3174 113.034 17.2367C112.613 18.1943 112.077 18.9986 111.349 19.6881C110.621 20.3776 109.778 20.9138 108.821 21.3352C107.863 21.7182 106.829 21.948 105.757 21.948C104.684 21.948 103.65 21.7565 102.692 21.3352C101.735 20.9521 100.892 20.3776 100.202 19.6881C99.4747 18.9986 98.9384 18.156 98.5171 17.2367C98.0958 16.2791 97.9042 15.2832 97.9042 14.1724C97.9042 13.0999 98.0958 12.104 98.5171 11.1464C98.9384 10.1888 99.513 9.38442 100.202 8.65665C100.93 7.96718 101.735 7.39262 102.692 7.00959C103.65 6.62655 104.646 6.39673 105.718 6.39673C106.791 6.39673 107.825 6.58825 108.782 7.00959C109.74 7.39262 110.583 7.96718 111.311 8.65665C112.038 9.34611 112.575 10.1505 112.996 11.1081C113.417 12.0657 113.647 13.0999 113.647 14.1724ZM109.97 14.1724C109.97 13.5595 109.855 12.9467 109.625 12.4104C109.395 11.8742 109.089 11.3762 108.706 10.9932C108.323 10.5718 107.863 10.2654 107.365 10.0356C106.867 9.80576 106.331 9.69085 105.718 9.69085C105.144 9.69085 104.607 9.80576 104.071 10.0356C103.573 10.2654 103.114 10.5718 102.731 10.9932C102.347 11.4145 102.041 11.8742 101.811 12.4104C101.581 12.9467 101.466 13.5595 101.466 14.1724C101.466 14.7852 101.581 15.3981 101.811 15.9343C102.041 16.4706 102.347 16.9685 102.731 17.3516C103.114 17.7729 103.573 18.0794 104.071 18.3092C104.569 18.539 105.105 18.6539 105.718 18.6539C106.293 18.6539 106.829 18.539 107.365 18.3092C107.863 18.0794 108.323 17.7729 108.706 17.3516C109.089 16.9302 109.395 16.4706 109.625 15.9343C109.855 15.3981 109.97 14.7852 109.97 14.1724Z" fill="#2A1CA7"/>
<path d="M129.007 21.565H125.33V20.4542C125.1 20.684 124.832 20.9138 124.487 21.067C124.142 21.2203 123.836 21.4118 123.491 21.5267C123.146 21.6416 122.802 21.7565 122.419 21.8331C122.036 21.9097 121.691 21.948 121.384 21.948C120.618 21.948 119.929 21.8331 119.239 21.6033C118.55 21.3735 117.937 20.9904 117.401 20.4925C116.865 19.9945 116.443 19.3434 116.137 18.5773C115.83 17.8112 115.677 16.8536 115.677 15.7811V6.77976H119.354V15.5513C119.354 16.0876 119.431 16.5472 119.584 16.9302C119.737 17.3133 119.967 17.658 120.235 17.9261C120.503 18.1943 120.81 18.3858 121.155 18.5007C121.499 18.6156 121.882 18.6922 122.227 18.6922C123.415 18.6922 124.449 18.2709 125.33 17.4665V6.74146H129.007V21.565Z" fill="#2A1CA7"/>
<path d="M145.516 21.565H141.839V12.7551C141.839 12.2189 141.762 11.7592 141.609 11.3762C141.456 10.9932 141.226 10.6484 140.958 10.3803C140.689 10.1122 140.383 9.92067 140.038 9.80576C139.694 9.69085 139.311 9.61424 138.966 9.61424C138.391 9.61424 137.855 9.72915 137.28 9.92067C136.744 10.1122 136.246 10.4186 135.787 10.84V21.6033H132.109V6.77977H135.787L135.825 7.89057C136.055 7.66075 136.323 7.46923 136.629 7.27771C136.936 7.08619 137.28 6.93298 137.625 6.81807C137.97 6.70316 138.315 6.58825 138.698 6.51164C139.081 6.43503 139.425 6.39673 139.77 6.39673C140.536 6.39673 141.226 6.51164 141.915 6.74146C142.605 6.97128 143.218 7.35432 143.754 7.85227C144.29 8.35022 144.711 9.00138 145.056 9.76745C145.363 10.5335 145.554 11.4911 145.554 12.5636V21.565H145.516Z" fill="#2A1CA7"/>
<path d="M161.986 21.565H158.233V20.7989C157.773 21.1819 157.237 21.4884 156.662 21.6416C156.088 21.8331 155.513 21.9097 154.862 21.9097C153.828 21.9097 152.87 21.7182 151.989 21.2968C151.108 20.8755 150.38 20.301 149.729 19.6115C149.116 18.922 148.618 18.0793 148.274 17.16C147.929 16.2408 147.737 15.2449 147.737 14.2107C147.737 13.0999 147.929 12.0657 148.35 11.1464C148.733 10.1888 149.27 9.3844 149.959 8.69493C150.61 8.00547 151.376 7.43091 152.219 7.04787C153.062 6.66484 153.943 6.43501 154.862 6.43501C155.475 6.43501 156.088 6.51162 156.7 6.70314C157.313 6.85635 157.811 7.12448 158.233 7.43091V0.344727H161.948V21.565H161.986ZM158.309 17.5814V10.4952C158.156 10.3803 157.926 10.2654 157.735 10.1505C157.505 10.0356 157.275 9.95895 157.045 9.88235C156.815 9.80574 156.586 9.72913 156.317 9.69083C156.088 9.65252 155.858 9.61422 155.666 9.61422C155.053 9.61422 154.479 9.72913 153.981 9.92065C153.483 10.1505 153.023 10.4569 152.679 10.8399C152.296 11.223 152.027 11.7209 151.798 12.2955C151.606 12.87 151.491 13.4829 151.491 14.1724C151.491 14.8235 151.606 15.4364 151.798 16.0109C151.989 16.5472 152.295 17.0451 152.64 17.4282C152.985 17.8112 153.445 18.1559 153.943 18.3475C154.441 18.5773 155.015 18.6922 155.59 18.6922C156.547 18.6922 157.466 18.3092 158.309 17.5814Z" fill="#2A1CA7"/>
<path d="M175.661 8.31191L173.707 11.4145C173.363 11.0315 172.941 10.6867 172.52 10.3803C172.099 10.0739 171.639 9.92067 171.218 9.92067C170.988 9.92067 170.72 9.95897 170.451 10.0739C170.183 10.1888 169.915 10.3803 169.647 10.6101C169.417 10.8783 169.187 11.1847 169.034 11.606C168.881 12.0274 168.766 12.5253 168.766 13.1382V21.4501H165.089V6.77977H168.766V8.35022C169.226 7.73736 169.685 7.23941 170.222 6.89468C170.758 6.54994 171.371 6.39673 172.022 6.39673C172.673 6.39673 173.286 6.58825 173.937 6.93298C174.55 7.27771 175.124 7.73736 175.661 8.31191Z" fill="#2A1CA7"/>
<path d="M190.369 6.77979L183.743 24.3229C183.245 25.6252 182.594 26.5828 181.789 27.1573C180.985 27.7319 180.027 28.0383 178.917 28.0383C178.763 28.0383 178.572 28.0383 178.342 28C178.15 27.9617 177.959 27.9234 177.767 27.8851L176.542 24.4761C176.848 24.6293 177.116 24.7059 177.423 24.7825C177.729 24.8591 178.036 24.8974 178.304 24.8974C178.878 24.8974 179.415 24.7825 179.874 24.5144C180.334 24.2463 180.717 23.7483 180.985 23.0589L181.483 21.565L175.814 6.77979H179.836L183.245 16.2791L186.424 6.77979H190.369Z" fill="#2A1CA7"/>
</svg>
