<svg xmlns="http://www.w3.org/2000/svg" viewBox="0 0 175 56.35"><defs><style>.cls-1{fill:#fff;}.cls-2{fill:#0038b8;}.cls-3{fill:#ed1c24;}.cls-4{fill:#009245;}</style></defs><title>logo_website_2</title><g id="Layer_2" data-name="Layer 2"><g id="Layer_1-2" data-name="Layer 1"><rect class="cls-1" x="126.55" y="1.16" width="37.14" height="32.34" rx="2.18"/><path d="M161.5,1.6a1.75,1.75,0,0,1,1.75,1.74v28a1.75,1.75,0,0,1-1.75,1.75H128.73A1.75,1.75,0,0,1,127,31.32v-28a1.74,1.74,0,0,1,1.75-1.74H161.5m0-.87H128.73a2.61,2.61,0,0,0-2.62,2.61v28a2.62,2.62,0,0,0,2.62,2.62H161.5a2.62,2.62,0,0,0,2.62-2.62v-28A2.62,2.62,0,0,0,161.5.73Z"/><path d="M150.11,7.64a11.13,11.13,0,0,1,3.39,2.07l-3.16,2.75a5.81,5.81,0,0,0-4.41-1.65c-1.89,0-3.1.39-3.62,1.17a1.44,1.44,0,0,0,0,2c.52.55,1.73,1,3.62,1.24a13,13,0,0,1,5.44,1.72,5,5,0,0,1,2.44,4.62,5.12,5.12,0,0,1-2.61,4.26,10.41,10.41,0,0,1-6.07,1.79,15.82,15.82,0,0,1-5.5-.82,12.29,12.29,0,0,1-3.78-2.2L139,21.82c1.05,1.1,2.84,1.75,5.36,1.93q3.15,0,3.93-1.17a2,2,0,0,0,0-2.34c-.52-.78-1.83-1.26-3.93-1.45a14,14,0,0,1-5.2-1.51A4.42,4.42,0,0,1,136.79,13a5,5,0,0,1,2.69-4.4A10.34,10.34,0,0,1,145,7,14.91,14.91,0,0,1,150.11,7.64Z"/><rect class="cls-2" y="0.56" width="38" height="33.21" rx="2.51"/><rect class="cls-3" x="42.04" y="0.56" width="38" height="33.21" rx="2.73"/><rect class="cls-4" x="84.07" y="0.56" width="38" height="33.21" rx="3.05"/><path class="cls-1" d="M11,24.64a9.41,9.41,0,0,1-3.39-7.4A9.4,9.4,0,0,1,11,9.92a12.29,12.29,0,0,1,8.4-3,13.9,13.9,0,0,1,8.68,2.76l-3.15,3a9.56,9.56,0,0,0-5.53-1.65A7.56,7.56,0,0,0,14.3,12.8a5.62,5.62,0,0,0-1.94,4.41,5.76,5.76,0,0,0,2,4.57,7.54,7.54,0,0,0,5.13,1.69,7.29,7.29,0,0,0,3.93-.88V19.05l-3.16,0V15.21h7.88v9.64a13.85,13.85,0,0,1-8.68,2.75A12.38,12.38,0,0,1,11,24.64Z"/><path class="cls-1" d="M53.38,24.64A9.41,9.41,0,0,1,50,17.24a9.4,9.4,0,0,1,3.4-7.32,12.29,12.29,0,0,1,8.4-3,13.9,13.9,0,0,1,8.68,2.76l-3.15,3a9.56,9.56,0,0,0-5.53-1.65,7.56,7.56,0,0,0-5.13,1.73,5.62,5.62,0,0,0-1.94,4.41,5.76,5.76,0,0,0,2,4.57,7.54,7.54,0,0,0,5.13,1.69,9.28,9.28,0,0,0,5.5-1.63l3.15,3a13.85,13.85,0,0,1-8.68,2.75A12.38,12.38,0,0,1,53.38,24.64Z"/><path class="cls-1" d="M108.27,18.6l5.89,9h-5.42l-5.65-8.53H98.77V27.6H94V7h10.31q8.27,0,8.27,6A5.42,5.42,0,0,1,108.27,18.6Zm-9.5-3.39h6.62c1.9,0,2.87-.78,2.93-2.27s-1-2.06-2.89-2.12H98.77Z"/><text/><path d="M3.82,41.53v-1H6.35v2.32a3.05,3.05,0,0,1-1.07.63,3.93,3.93,0,0,1-1.42.27,3.29,3.29,0,0,1-1.6-.38,2.47,2.47,0,0,1-1-1.1A3.52,3.52,0,0,1,.9,40.74a3.4,3.4,0,0,1,.38-1.62A2.62,2.62,0,0,1,2.4,38a3.06,3.06,0,0,1,1.4-.29,2.74,2.74,0,0,1,1.69.46,2,2,0,0,1,.79,1.26l-1.17.22A1.19,1.19,0,0,0,4.64,39a1.35,1.35,0,0,0-.84-.25,1.58,1.58,0,0,0-1.23.49,2,2,0,0,0-.46,1.45,2.34,2.34,0,0,0,.46,1.56,1.56,1.56,0,0,0,1.21.52,2,2,0,0,0,.75-.15,2.52,2.52,0,0,0,.63-.35v-.74Z"/><path d="M7.44,43.67V37.84h4.32v1H8.62v1.29h2.93v1H8.62v1.59h3.26v1Z"/><path d="M12.64,40.79a3.65,3.65,0,0,1,.26-1.49,2.75,2.75,0,0,1,.54-.8A2.38,2.38,0,0,1,14.2,38a3.26,3.26,0,0,1,1.26-.23,2.76,2.76,0,0,1,2.06.8,3.1,3.1,0,0,1,.77,2.23A3,3,0,0,1,17.52,43a2.7,2.7,0,0,1-2,.79A2.74,2.74,0,0,1,13.4,43,3,3,0,0,1,12.64,40.79Zm1.21,0a2.2,2.2,0,0,0,.46,1.51,1.48,1.48,0,0,0,1.16.51,1.46,1.46,0,0,0,1.15-.51,2.24,2.24,0,0,0,.45-1.52,2.22,2.22,0,0,0-.43-1.5,1.5,1.5,0,0,0-1.17-.49,1.49,1.49,0,0,0-1.18.5A2.22,2.22,0,0,0,13.85,40.75Z"/><path d="M25.21,41.53l1.14.36a2.58,2.58,0,0,1-.88,1.42,2.45,2.45,0,0,1-1.54.46A2.48,2.48,0,0,1,22,43a3,3,0,0,1-.75-2.17A3.18,3.18,0,0,1,22,38.55a2.57,2.57,0,0,1,2-.81,2.45,2.45,0,0,1,1.74.63,2.33,2.33,0,0,1,.59,1.08l-1.16.28a1.25,1.25,0,0,0-.44-.72,1.23,1.23,0,0,0-.79-.26,1.33,1.33,0,0,0-1.06.46,2.35,2.35,0,0,0-.4,1.51,2.44,2.44,0,0,0,.4,1.58,1.29,1.29,0,0,0,1,.47,1.16,1.16,0,0,0,.81-.3A1.72,1.72,0,0,0,25.21,41.53Z"/><path d="M27.39,43.67V37.89h1.18v4.8H31.5v1Z"/><path d="M32.3,43.67V37.84h1.18v5.83Z"/><path d="M34.58,43.67V37.84h1.77l1,4,1.05-4h1.77v5.83h-1.1V39.08L38,43.67H36.83l-1.15-4.59v4.59Z"/><path d="M46.64,43.67H45.36l-.51-1.32H42.52L42,43.67H40.79l2.27-5.83h1.25Zm-2.16-2.3-.81-2.17-.78,2.17Z"/><path d="M48,43.67V38.83H46.25v-1h4.63v1H49.16v4.84Z"/><path d="M51.64,43.67V37.84H56v1H52.82v1.29h2.93v1H52.82v1.59h3.26v1Z"/><path d="M59.34,43.67V37.84h2.48a4.05,4.05,0,0,1,1.36.16,1.32,1.32,0,0,1,.68.56,1.67,1.67,0,0,1,.25.92,1.58,1.58,0,0,1-.38,1.08,1.81,1.81,0,0,1-1.16.54,2.5,2.5,0,0,1,.63.49,6.09,6.09,0,0,1,.67.95l.72,1.13H63.18l-.85-1.27a10.38,10.38,0,0,0-.62-.85.94.94,0,0,0-.36-.25,2.07,2.07,0,0,0-.59-.06h-.24v2.43Zm1.18-3.36h.87a5,5,0,0,0,1.06-.07.64.64,0,0,0,.33-.25.76.76,0,0,0,.12-.44.67.67,0,0,0-.16-.47.7.7,0,0,0-.44-.23,7.63,7.63,0,0,0-.86,0h-.92Z"/><path d="M65.19,43.67V37.84h1.18v5.83Z"/><path d="M67.19,41.78l1.14-.12a1.4,1.4,0,0,0,.42.85,1.56,1.56,0,0,0,1.71,0,.7.7,0,0,0,.29-.56.51.51,0,0,0-.12-.35,1,1,0,0,0-.42-.26c-.14,0-.45-.13-.94-.25a3.14,3.14,0,0,1-1.33-.58,1.51,1.51,0,0,1-.54-1.17,1.45,1.45,0,0,1,.25-.83,1.62,1.62,0,0,1,.73-.6,3,3,0,0,1,1.15-.2,2.46,2.46,0,0,1,1.65.48,1.7,1.7,0,0,1,.58,1.29l-1.17.05a1,1,0,0,0-.33-.65,1.17,1.17,0,0,0-.74-.19,1.37,1.37,0,0,0-.81.21.43.43,0,0,0-.18.36.41.41,0,0,0,.17.35,2.91,2.91,0,0,0,1.08.39,6,6,0,0,1,1.27.42,1.71,1.71,0,0,1,.65.6,1.77,1.77,0,0,1,.23.92,1.67,1.67,0,0,1-.28.94,1.59,1.59,0,0,1-.79.65,3.13,3.13,0,0,1-1.26.22,2.52,2.52,0,0,1-1.7-.51A2.24,2.24,0,0,1,67.19,41.78Z"/><path d="M72.94,43.67V37.84h1.17v2.59l2.38-2.59h1.59l-2.2,2.27,2.32,3.56H76.67l-1.6-2.73-1,1v1.76Z"/><path d="M80.77,41.78l1.15-.12a1.4,1.4,0,0,0,.42.85,1.26,1.26,0,0,0,.85.27,1.34,1.34,0,0,0,.86-.24.71.71,0,0,0,.28-.56.51.51,0,0,0-.12-.35,1,1,0,0,0-.42-.26c-.14,0-.45-.13-.94-.25a3.2,3.2,0,0,1-1.33-.58A1.51,1.51,0,0,1,81,39.37a1.53,1.53,0,0,1,.25-.83,1.62,1.62,0,0,1,.73-.6,3,3,0,0,1,1.15-.2,2.46,2.46,0,0,1,1.65.48,1.71,1.71,0,0,1,.59,1.29l-1.18.05a1,1,0,0,0-.33-.65,1.17,1.17,0,0,0-.74-.19,1.39,1.39,0,0,0-.81.21.43.43,0,0,0-.18.36.44.44,0,0,0,.17.35,2.91,2.91,0,0,0,1.08.39,6.32,6.32,0,0,1,1.28.42A1.62,1.62,0,0,1,85.51,42a1.67,1.67,0,0,1-.28.94,1.57,1.57,0,0,1-.78.65,3.18,3.18,0,0,1-1.27.22,2.52,2.52,0,0,1-1.7-.51A2.24,2.24,0,0,1,80.77,41.78Z"/><path d="M86.26,40.79a3.64,3.64,0,0,1,.27-1.49,2.57,2.57,0,0,1,.54-.8,2.28,2.28,0,0,1,.76-.53,3.24,3.24,0,0,1,1.25-.23,2.77,2.77,0,0,1,2.07.8,3.1,3.1,0,0,1,.77,2.23A3,3,0,0,1,91.15,43a2.7,2.7,0,0,1-2.05.79A2.74,2.74,0,0,1,87,43,3,3,0,0,1,86.26,40.79Zm1.22,0a2.2,2.2,0,0,0,.46,1.51,1.48,1.48,0,0,0,1.16.51,1.46,1.46,0,0,0,1.15-.51,2.24,2.24,0,0,0,.45-1.52,2.17,2.17,0,0,0-.44-1.5,1.47,1.47,0,0,0-1.16-.49,1.49,1.49,0,0,0-1.18.5A2.22,2.22,0,0,0,87.48,40.75Z"/><path d="M92.87,43.67V37.89h1.18v4.8H97v1Z"/><path d="M97.81,37.84H99V41a6.48,6.48,0,0,0,0,1,.94.94,0,0,0,.36.58,1.29,1.29,0,0,0,.78.22,1.16,1.16,0,0,0,.75-.21.79.79,0,0,0,.31-.5,7.32,7.32,0,0,0,0-1V37.84h1.18V40.9a7.34,7.34,0,0,1-.1,1.49,1.61,1.61,0,0,1-.35.73,1.81,1.81,0,0,1-.68.48,4.06,4.06,0,0,1-2.39,0,1.92,1.92,0,0,1-.69-.5,1.82,1.82,0,0,1-.33-.65A7.67,7.67,0,0,1,97.81,41Z"/><path d="M105,43.67V38.83h-1.73v-1h4.64v1h-1.73v4.84Z"/><path d="M108.64,43.67V37.84h1.18v5.83Z"/><path d="M110.7,40.79A3.64,3.64,0,0,1,111,39.3a2.57,2.57,0,0,1,.54-.8,2.28,2.28,0,0,1,.76-.53,3.24,3.24,0,0,1,1.25-.23,2.77,2.77,0,0,1,2.07.8,3.59,3.59,0,0,1,0,4.44,2.7,2.7,0,0,1-2,.79,2.74,2.74,0,0,1-2.07-.79A3,3,0,0,1,110.7,40.79Zm1.22,0a2.25,2.25,0,0,0,.45,1.51,1.51,1.51,0,0,0,1.16.51,1.48,1.48,0,0,0,1.16-.51,2.24,2.24,0,0,0,.45-1.52,2.17,2.17,0,0,0-.44-1.5,1.63,1.63,0,0,0-2.34,0A2.17,2.17,0,0,0,111.92,40.75Z"/><path d="M117.29,43.67V37.84h1.15l2.38,3.9v-3.9h1.1v5.83h-1.18l-2.36-3.8v3.8Z"/><path d="M122.86,41.78l1.15-.12a1.4,1.4,0,0,0,.42.85,1.26,1.26,0,0,0,.85.27,1.32,1.32,0,0,0,.86-.24.73.73,0,0,0,.29-.56.51.51,0,0,0-.12-.35,1.06,1.06,0,0,0-.43-.26c-.13,0-.45-.13-.94-.25a3.27,3.27,0,0,1-1.33-.58,1.51,1.51,0,0,1-.54-1.17,1.46,1.46,0,0,1,.26-.83,1.62,1.62,0,0,1,.73-.6,3,3,0,0,1,1.14-.2,2.47,2.47,0,0,1,1.66.48,1.7,1.7,0,0,1,.58,1.29l-1.18.05a1,1,0,0,0-.32-.65,1.22,1.22,0,0,0-.75-.19,1.33,1.33,0,0,0-.8.21.41.41,0,0,0-.19.36.42.42,0,0,0,.18.35,2.76,2.76,0,0,0,1.08.39,6.41,6.41,0,0,1,1.27.42,1.65,1.65,0,0,1,.88,1.52,1.75,1.75,0,0,1-.28.94,1.63,1.63,0,0,1-.79.65,3.14,3.14,0,0,1-1.27.22,2.54,2.54,0,0,1-1.7-.51A2.29,2.29,0,0,1,122.86,41.78Z"/><path d="M130.86,43.67V37.84h1.89a6.65,6.65,0,0,1,1.4.09,1.59,1.59,0,0,1,.84.57,1.84,1.84,0,0,1,.34,1.14,1.93,1.93,0,0,1-.2.9,1.61,1.61,0,0,1-.49.57,1.85,1.85,0,0,1-.61.28,6.4,6.4,0,0,1-1.22.08H132v2.2ZM132,38.83v1.65h.64a3,3,0,0,0,.93-.09.76.76,0,0,0,.5-.74.75.75,0,0,0-.18-.52.82.82,0,0,0-.48-.26,5.12,5.12,0,0,0-.84,0Z"/><path d="M137.78,43.67l-2.08-5.83H137l1.48,4.32,1.43-4.32h1.25L139,43.67Z"/><path d="M143,43.67V38.83h-1.73v-1H146v1h-1.73v4.84Z"/><path d="M149,43.67V37.89h1.18v4.8h2.93v1Z"/><path d="M154.65,43.67V38.83h-1.73v-1h4.64v1h-1.73v4.84Z"/><path d="M158.31,37.84h2.16a4.47,4.47,0,0,1,1.11.11,2,2,0,0,1,.88.54,2.65,2.65,0,0,1,.55.94,4.3,4.3,0,0,1,.19,1.38,3.78,3.78,0,0,1-.18,1.24,2.45,2.45,0,0,1-.62,1,2,2,0,0,1-.83.47,3.66,3.66,0,0,1-1,.12h-2.22Zm1.18,1v3.86h.88a2.92,2.92,0,0,0,.71-.06,1,1,0,0,0,.48-.24,1.27,1.27,0,0,0,.31-.56,3.8,3.8,0,0,0,.12-1.07,3.48,3.48,0,0,0-.12-1,1.24,1.24,0,0,0-.34-.56,1.08,1.08,0,0,0-.54-.28,6.47,6.47,0,0,0-1-.05Z"/><path d="M91.73,54.53v-.87h.87v.87Z"/><path d="M94.14,54.53v-.87H95v.87Z"/><path d="M96.55,54.53v-.87h.87v.87Z"/><path d="M99,54.53v-.87h.86v.87Z"/><path d="M101.33,54.53v-3.9h-.67V50h.67v-.48a2.28,2.28,0,0,1,.08-.68,1,1,0,0,1,.39-.48,1.39,1.39,0,0,1,.77-.18,3.17,3.17,0,0,1,.72.08l-.12.66a2.42,2.42,0,0,0-.45,0,.67.67,0,0,0-.49.15.81.81,0,0,0-.14.55V50H103v.59h-.87v3.9Z"/><path d="M103.27,52.28a2.3,2.3,0,0,1,.7-1.85,2.08,2.08,0,0,1,1.41-.5,2.06,2.06,0,0,1,1.52.61,2.34,2.34,0,0,1,.58,1.68,2.86,2.86,0,0,1-.26,1.36,1.82,1.82,0,0,1-.75.78,2.29,2.29,0,0,1-1.09.27,2,2,0,0,1-1.53-.6A2.48,2.48,0,0,1,103.27,52.28Zm.79,0a1.94,1.94,0,0,0,.37,1.3,1.22,1.22,0,0,0,.95.42,1.18,1.18,0,0,0,.94-.43,2.38,2.38,0,0,0,0-2.58,1.21,1.21,0,0,0-.94-.43,1.23,1.23,0,0,0-.95.43A1.93,1.93,0,0,0,104.06,52.28Z"/><path d="M108.37,54.53V50h.68v.68a1.87,1.87,0,0,1,.49-.63.8.8,0,0,1,.49-.16,1.55,1.55,0,0,1,.78.25l-.26.71a1.1,1.1,0,0,0-.56-.17.72.72,0,0,0-.45.15.79.79,0,0,0-.28.42,2.77,2.77,0,0,0-.13.89v2.35Z"/><path d="M113.37,53.19l.75-.12a1,1,0,0,0,.35.69,1.26,1.26,0,0,0,.81.24,1.21,1.21,0,0,0,.78-.21.64.64,0,0,0,.26-.5.48.48,0,0,0-.23-.41,3.45,3.45,0,0,0-.78-.25,8.5,8.5,0,0,1-1.16-.37,1.15,1.15,0,0,1-.49-.43,1.13,1.13,0,0,1-.17-.6,1.19,1.19,0,0,1,.14-.56,1.18,1.18,0,0,1,.38-.42,1.65,1.65,0,0,1,.48-.23,2.29,2.29,0,0,1,.66-.09,2.45,2.45,0,0,1,.93.16,1.25,1.25,0,0,1,.59.41,1.69,1.69,0,0,1,.26.69l-.75.11a.83.83,0,0,0-.29-.55,1.07,1.07,0,0,0-.69-.19,1.3,1.3,0,0,0-.75.17.5.5,0,0,0-.22.41.44.44,0,0,0,.09.27.65.65,0,0,0,.29.2l.68.19a11.25,11.25,0,0,1,1.13.36,1.07,1.07,0,0,1,.68,1.05,1.29,1.29,0,0,1-.22.72,1.52,1.52,0,0,1-.64.52,2.4,2.4,0,0,1-.95.18,2.14,2.14,0,0,1-1.34-.36A1.73,1.73,0,0,1,113.37,53.19Z"/><path d="M121,54.53v-.66a1.63,1.63,0,0,1-1.43.76,1.85,1.85,0,0,1-.74-.15,1.22,1.22,0,0,1-.51-.38,1.63,1.63,0,0,1-.24-.57,4.14,4.14,0,0,1,0-.71V50h.76v2.49a4.38,4.38,0,0,0,0,.8.76.76,0,0,0,.3.47.93.93,0,0,0,.58.18,1.21,1.21,0,0,0,.64-.18,1,1,0,0,0,.43-.48,2.47,2.47,0,0,0,.12-.88V50h.76v4.49Z"/><path d="M122.52,53.19l.75-.12a1.06,1.06,0,0,0,.36.69,1.22,1.22,0,0,0,.81.24,1.21,1.21,0,0,0,.78-.21.63.63,0,0,0,.25-.5.47.47,0,0,0-.22-.41,3.88,3.88,0,0,0-.78-.25,8,8,0,0,1-1.16-.37,1.17,1.17,0,0,1-.5-.43,1.12,1.12,0,0,1-.16-.6,1.08,1.08,0,0,1,.14-.56,1.15,1.15,0,0,1,.37-.42,1.79,1.79,0,0,1,.48-.23,2.39,2.39,0,0,1,.66-.09,2.45,2.45,0,0,1,.93.16,1.2,1.2,0,0,1,.59.41,1.45,1.45,0,0,1,.26.69l-.74.11a.83.83,0,0,0-.29-.55,1.11,1.11,0,0,0-.69-.19,1.3,1.3,0,0,0-.75.17.52.52,0,0,0-.23.41.39.39,0,0,0,.1.27.65.65,0,0,0,.29.2l.67.19a10.43,10.43,0,0,1,1.13.36,1.07,1.07,0,0,1,.68,1.05,1.29,1.29,0,0,1-.22.72,1.52,1.52,0,0,1-.64.52,2.4,2.4,0,0,1-1,.18,2.11,2.11,0,0,1-1.33-.36A1.74,1.74,0,0,1,122.52,53.19Z"/><path d="M128.82,53.85l.11.67a2.46,2.46,0,0,1-.57.07,1.31,1.31,0,0,1-.65-.13.72.72,0,0,1-.32-.35,2.8,2.8,0,0,1-.09-.9V50.63h-.56V50h.56V48.92l.76-.45V50h.76v.59h-.76v2.63a1.19,1.19,0,0,0,0,.41.24.24,0,0,0,.13.15.45.45,0,0,0,.26.06Z"/><path d="M132.5,54a2.79,2.79,0,0,1-.81.5,2.4,2.4,0,0,1-.84.15,1.62,1.62,0,0,1-1.14-.36,1.18,1.18,0,0,1-.4-.93,1.21,1.21,0,0,1,.15-.6,1.28,1.28,0,0,1,.39-.44,2.11,2.11,0,0,1,.55-.25,6.44,6.44,0,0,1,.68-.11,7,7,0,0,0,1.36-.26v-.2a.83.83,0,0,0-.22-.66,1.26,1.26,0,0,0-.86-.26,1.41,1.41,0,0,0-.8.19,1.22,1.22,0,0,0-.38.67l-.74-.1a1.89,1.89,0,0,1,.33-.77,1.49,1.49,0,0,1,.68-.46,3.12,3.12,0,0,1,1-.16,2.68,2.68,0,0,1,.93.14,1.19,1.19,0,0,1,.53.34,1.32,1.32,0,0,1,.24.52,4.88,4.88,0,0,1,0,.7v1a9.35,9.35,0,0,0,0,1.34,1.52,1.52,0,0,0,.19.54h-.8A1.54,1.54,0,0,1,132.5,54Zm-.06-1.71a5.26,5.26,0,0,1-1.25.29,3.69,3.69,0,0,0-.66.15.68.68,0,0,0-.3.25.66.66,0,0,0-.11.36.65.65,0,0,0,.23.51,1,1,0,0,0,.68.2,1.55,1.55,0,0,0,.78-.19,1.14,1.14,0,0,0,.5-.52,1.75,1.75,0,0,0,.13-.77Z"/><path d="M134.39,49.2v-.87h.76v.87Zm0,5.33V50h.76v4.49Z"/><path d="M136.31,54.53V50H137v.63a1.63,1.63,0,0,1,1.43-.74,1.86,1.86,0,0,1,.75.15,1.27,1.27,0,0,1,.51.38,1.46,1.46,0,0,1,.23.57,3.91,3.91,0,0,1,.05.74v2.76h-.77V51.8a2,2,0,0,0-.09-.7.7.7,0,0,0-.31-.37,1,1,0,0,0-.53-.14,1.24,1.24,0,0,0-.84.31,1.53,1.53,0,0,0-.36,1.18v2.45Z"/><path d="M144.07,54a3,3,0,0,1-.82.5,2.32,2.32,0,0,1-.84.15,1.66,1.66,0,0,1-1.14-.36,1.29,1.29,0,0,1-.24-1.53,1.28,1.28,0,0,1,.39-.44,1.85,1.85,0,0,1,.55-.25,6.16,6.16,0,0,1,.67-.11,6.8,6.8,0,0,0,1.36-.26c0-.11,0-.17,0-.2a.83.83,0,0,0-.22-.66,1.27,1.27,0,0,0-.87-.26,1.39,1.39,0,0,0-.79.19,1.17,1.17,0,0,0-.38.67l-.74-.1a1.76,1.76,0,0,1,.33-.77,1.51,1.51,0,0,1,.67-.46,3.21,3.21,0,0,1,1-.16,2.7,2.7,0,0,1,.94.14,1.19,1.19,0,0,1,.53.34,1.32,1.32,0,0,1,.24.52,5.37,5.37,0,0,1,0,.7v1a11.25,11.25,0,0,0,0,1.34,1.74,1.74,0,0,0,.19.54h-.79A1.54,1.54,0,0,1,144.07,54ZM144,52.27a5.16,5.16,0,0,1-1.24.29,3.86,3.86,0,0,0-.67.15.68.68,0,0,0-.3.25.65.65,0,0,0-.1.36.62.62,0,0,0,.23.51,1,1,0,0,0,.67.2,1.57,1.57,0,0,0,.79-.19,1.19,1.19,0,0,0,.5-.52,1.93,1.93,0,0,0,.12-.77Z"/><path d="M146.66,54.53H146v-6.2h.76v2.21a1.52,1.52,0,0,1,1.23-.61,1.93,1.93,0,0,1,.79.17,1.59,1.59,0,0,1,.61.47,2.28,2.28,0,0,1,.37.73,3,3,0,0,1,.14.91,2.58,2.58,0,0,1-.57,1.79,1.79,1.79,0,0,1-1.37.63,1.42,1.42,0,0,1-1.25-.66Zm0-2.28a2.3,2.3,0,0,0,.22,1.17,1.09,1.09,0,0,0,1.83.15,1.93,1.93,0,0,0,.37-1.29,2,2,0,0,0-.35-1.3,1.05,1.05,0,0,0-.84-.42A1.09,1.09,0,0,0,147,51,1.93,1.93,0,0,0,146.65,52.25Z"/><path d="M150.78,49.2v-.87h.76v.87Zm0,5.33V50h.76v4.49Z"/><path d="M152.68,54.53v-6.2h.76v6.2Z"/><path d="M154.63,49.2v-.87h.76v.87Zm0,5.33V50h.76v4.49Z"/><path d="M158.21,53.85l.11.67a2.46,2.46,0,0,1-.57.07,1.25,1.25,0,0,1-.64-.13.74.74,0,0,1-.33-.35,2.8,2.8,0,0,1-.09-.9V50.63h-.56V50h.56V48.92l.76-.45V50h.76v.59h-.76v2.63a1.19,1.19,0,0,0,0,.41.28.28,0,0,0,.13.15.48.48,0,0,0,.26.06Z"/><path d="M158.93,56.26l-.09-.71a1.92,1.92,0,0,0,.44.06.89.89,0,0,0,.4-.08.72.72,0,0,0,.25-.24,3.08,3.08,0,0,0,.24-.57l.06-.18-1.7-4.5h.82l.93,2.6a10.54,10.54,0,0,1,.33,1c.09-.35.19-.69.31-1l1-2.61h.77l-1.71,4.57c-.19.49-.33.83-.43,1a1.53,1.53,0,0,1-.47.55,1,1,0,0,1-.62.17A1.55,1.55,0,0,1,158.93,56.26Z"/><path d="M169.33.26V.38l0,.08s0,0,0,0l0,0h-1.29v4s0,0,0,0l-.05,0-.09,0h-.29l-.1,0-.05,0a.09.09,0,0,1,0,0v-4H166l0,0s0,0,0,0,0-.05,0-.08a.41.41,0,0,1,0-.12.49.49,0,0,1,0-.12s0-.06,0-.08l0,0h3.3a.1.1,0,0,1,0,0l0,.08Z"/><path d="M175,4.51a.09.09,0,0,1,0,0l-.06,0-.09,0h-.29l-.1,0,0,0a.09.09,0,0,1,0,0V.5h0l-1.62,4,0,0-.06,0-.09,0h-.25l-.09,0a.05.05,0,0,1-.05,0l0,0-1.55-4h0v4s0,0,0,0,0,0-.05,0l-.09,0h-.3l-.09,0-.05,0a.09.09,0,0,1,0,0V.28a.26.26,0,0,1,.08-.22.27.27,0,0,1,.17-.06h.38l.2,0a.52.52,0,0,1,.15.07.32.32,0,0,1,.11.12.6.6,0,0,1,.08.16l1.31,3.33h0L173.87.38A.76.76,0,0,1,174,.2a.4.4,0,0,1,.1-.12.34.34,0,0,1,.12-.06l.16,0h.4l.1,0a.14.14,0,0,1,.08.05.24.24,0,0,1,.06.08.51.51,0,0,1,0,.13Z"/></g></g></svg>