<?xml version="1.0" encoding="utf-8"?>
<!-- Generator: Adobe Illustrator 16.0.0, SVG Export Plug-In . SVG Version: 6.00 Build 0)  -->
<!DOCTYPE svg PUBLIC "-//W3C//DTD SVG 1.1//EN" "http://www.w3.org/Graphics/SVG/1.1/DTD/svg11.dtd">
<svg version="1.1" id="Layer_1" xmlns="http://www.w3.org/2000/svg" xmlns:xlink="http://www.w3.org/1999/xlink" x="0px" y="0px"
	 width="272px" height="38.524px" viewBox="0 0 272 38.524" enable-background="new 0 0 272 38.524" xml:space="preserve">
<g>
	<path fill="#B12025" d="M5.608,1.198h9.391l17.199,22.088h0.097V1.198h9.392v36.127h-9.392L15.094,15.189h-0.095v22.136H5.608
		V1.198z M56.537,31.048l-2.492,6.277h-9.964L57.973,1.198h10.255l13.607,36.127H71.82l-2.349-6.277H56.537z M63.101,12.361h-0.097
		l-3.88,11.5h7.81L63.101,12.361z M104.112,10.494c-1.726-1.438-3.928-2.396-6.23-2.396c-1.724,0-4.024,1.006-4.024,3.019
		c0,2.109,2.539,2.923,4.17,3.449l2.396,0.72c5.031,1.486,8.91,4.024,8.91,9.871c0,3.593-0.861,7.282-3.737,9.727
		c-2.827,2.396-6.613,3.4-10.254,3.4c-4.551,0-9.007-1.534-12.696-4.121l4.025-7.57c2.348,2.061,5.126,3.738,8.336,3.738
		c2.204,0,4.553-1.102,4.553-3.642c0-2.635-3.691-3.544-5.703-4.119c-5.892-1.678-9.774-3.211-9.774-10.207
		c0-7.33,5.222-12.122,12.457-12.122c3.643,0,8.098,1.15,11.309,2.971L104.112,10.494z M133.144,10.494
		c-1.724-1.438-3.929-2.396-6.228-2.396c-1.725,0-4.025,1.006-4.025,3.019c0,2.109,2.541,2.923,4.169,3.449l2.396,0.72
		c5.03,1.486,8.911,4.024,8.911,9.871c0,3.593-0.862,7.282-3.735,9.727c-2.828,2.396-6.614,3.4-10.254,3.4
		c-4.553,0-9.008-1.534-12.698-4.121l4.024-7.57c2.349,2.061,5.127,3.738,8.338,3.738c2.204,0,4.551-1.102,4.551-3.642
		c0-2.635-3.69-3.544-5.702-4.119c-5.893-1.678-9.773-3.211-9.773-10.207c0-7.33,5.224-12.122,12.458-12.122
		c3.64,0,8.097,1.15,11.308,2.971L133.144,10.494z M168.169,13.32c-1.916-2.588-5.033-3.977-8.243-3.977
		c-5.749,0-9.631,4.407-9.631,10.013c0,5.701,3.929,9.823,9.774,9.823c3.067,0,6.133-1.486,8.1-3.834v11.26
		c-3.117,0.959-5.367,1.676-8.291,1.676c-5.029,0-9.823-1.917-13.558-5.319c-3.977-3.593-5.797-8.287-5.797-13.654
		c0-4.933,1.868-9.678,5.319-13.223c3.544-3.642,8.67-5.846,13.75-5.846c3.018,0,5.797,0.671,8.577,1.82V13.32z M211.622,18.59
		c0,11.691-8.384,19.934-19.979,19.934c-11.594,0-19.979-8.243-19.979-19.934c0-10.924,9.582-18.59,19.979-18.59
		C202.041,0,211.622,7.667,211.622,18.59z M181.437,18.638c0,6.23,4.602,10.78,10.206,10.78c5.607,0,10.206-4.55,10.206-10.78
		c0-4.982-4.599-9.535-10.206-9.535C186.038,9.103,181.437,13.656,181.437,18.638z M219.479,1.198h9.247l7.331,19.31l7.761-19.31
		h9.343l5.461,36.127h-9.392l-2.635-20.795h-0.093l-8.675,20.795h-3.734l-8.289-20.795h-0.097l-3.019,20.795h-9.345L219.479,1.198z"
		/>
	<g>
		<path d="M262.548,13.204c-3.466,0-6.283-2.82-6.283-6.286c0-3.465,2.817-6.283,6.283-6.283c3.467,0,6.284,2.818,6.284,6.283
			C268.832,10.384,266.015,13.204,262.548,13.204z M262.548,1.549c-2.96,0-5.37,2.408-5.37,5.369c0,2.963,2.41,5.371,5.37,5.371
			c2.963,0,5.37-2.407,5.37-5.371C267.918,3.958,265.511,1.549,262.548,1.549z"/>
	</g>
	<g>
		<path d="M260.839,9.632V4.398h2.321c0.465,0,0.819,0.047,1.063,0.141c0.242,0.095,0.438,0.261,0.582,0.498
			c0.146,0.239,0.219,0.501,0.219,0.79c0,0.371-0.121,0.685-0.363,0.939c-0.24,0.254-0.61,0.417-1.111,0.485
			c0.181,0.089,0.323,0.176,0.415,0.261c0.204,0.186,0.395,0.418,0.574,0.696l0.912,1.425h-0.871l-0.69-1.089
			c-0.204-0.314-0.37-0.554-0.501-0.721s-0.25-0.284-0.353-0.349c-0.104-0.066-0.208-0.114-0.315-0.14
			c-0.078-0.016-0.208-0.024-0.387-0.024h-0.803v2.323H260.839z M261.531,6.708h1.488c0.316,0,0.565-0.033,0.744-0.098
			c0.176-0.065,0.313-0.17,0.405-0.313c0.093-0.145,0.139-0.301,0.139-0.47c0-0.248-0.088-0.451-0.267-0.611
			c-0.183-0.159-0.465-0.239-0.852-0.239h-1.658V6.708z"/>
	</g>
</g>
</svg>
