<?xml version="1.0" encoding="utf-8"?>
<!-- Generator: Adobe Illustrator 19.2.1, SVG Export Plug-In . SVG Version: 6.00 Build 0)  -->
<svg version="1.1" id="Layer_1" xmlns="http://www.w3.org/2000/svg" xmlns:xlink="http://www.w3.org/1999/xlink" x="0px" y="0px"
	 viewBox="0 0 250 100" style="enable-background:new 0 0 250 100;" xml:space="preserve">
<style type="text/css">
	.st0{fill:#FFC330;}
	.st1{fill:#46B172;}
	.st2{fill:#F15A29;}
	.st3{fill:#00AEBD;}
	.st4{fill:#AFCD3A;}
	.st5{fill:#F36D31;}
	.st6{fill:#FFFFFF;}
</style>
<g>
	<circle class="st0" cx="78.3" cy="19.1" r="5.6"/>
	<circle class="st1" cx="49.4" cy="46.2" r="5.6"/>
	<circle class="st2" cx="63.2" cy="48.6" r="5.6"/>
	<circle class="st3" cx="78.3" cy="50.4" r="5.6"/>
	<circle class="st4" cx="48.8" cy="76.5" r="5.6"/>
	<path class="st5" d="M63.2,9.9c-3.1,0-5.8,2-6.7,4.9c-5,1.8-9.2,5.6-11.4,10.6c-3.7,0.3-6.6,3.3-6.6,7c0,3.9,3.2,7.1,7.1,7.1
		c3.9,0,7.1-3.2,7.1-7.1c0-2.5-1.3-4.8-3.4-6c1.6-3.2,4.1-5.7,7.3-7.2c0.9,2.8,3.6,4.8,6.7,4.8c3.9,0,7.1-3.2,7.1-7.1
		C70.3,13.1,67.1,9.9,63.2,9.9z M45.6,36.6c-2.3,0-4.2-1.9-4.2-4.2c0-2.3,1.9-4.2,4.2-4.2c2.3,0,4.2,1.9,4.2,4.2
		C49.8,34.7,47.9,36.6,45.6,36.6z M63.2,21.2c-2.3,0-4.2-1.9-4.2-4.2c0-2.3,1.9-4.2,4.2-4.2c2.3,0,4.2,1.9,4.2,4.2
		C67.4,19.3,65.5,21.2,63.2,21.2z"/>
	<path class="st5" d="M82.3,58.6c-3.9-0.5-7.4,2.3-7.9,6.1c-0.4,3.1,1.3,6,4,7.2c-1.9,2.9-4.7,5.2-8,6.3c-1-2.1-3-3.8-5.5-4.1
		c-3.9-0.5-7.4,2.3-7.9,6.1c-0.5,3.9,2.3,7.4,6.2,7.9c3.7,0.5,7.1-2.1,7.8-5.7c5.3-1.6,9.5-5.3,11.9-10.1c2.9-0.6,5.3-3,5.7-6.1
		C88.9,62.6,86.1,59.1,82.3,58.6z M64.5,77.2c2.3,0.3,3.9,2.4,3.6,4.6c-0.3,2.3-2.4,3.9-4.6,3.6c-2.3-0.3-3.9-2.4-3.6-4.6
		C60.1,78.5,62.2,76.9,64.5,77.2z M81.9,61.5c2.3,0.3,3.9,2.4,3.6,4.6c-0.3,2.3-2.4,3.9-4.6,3.6c-2.3-0.3-3.9-2.4-3.6-4.6
		S79.6,61.2,81.9,61.5z"/>
</g>
<g>
	<g>
		<g>
			<g>
				<path class="st5" d="M106.2,59.4V49.2c0-1.6,1.3-2.9,2.9-2.9s2.9,1.3,2.9,2.9v10.2c0,2.4,2,4.4,4.4,4.4s4.4-2,4.4-4.4V49.2
					c0-1.6,1.3-2.9,2.9-2.9s2.9,1.3,2.9,2.9v10.2c0,5.6-4.5,10.2-10.2,10.2c-2.9,0-5.5-1.1-7.3-3c-1.9,1.9-4.4,3-7.3,3
					c-5.6,0-10.2-4.5-10.2-10.2V49.2c0-1.6,1.3-2.9,2.9-2.9c1.6,0,2.9,1.3,2.9,2.9v10.2c0,2.4,2,4.4,4.4,4.4S106.2,61.8,106.2,59.4z
					"/>
			</g>
		</g>
		<g>
			<g>
				<path class="st5" d="M141.9,69.6c-6.4,0-11.6-5.2-11.6-11.6c0-6.4,5.2-11.6,11.6-11.6c6.4,0,11.6,5.2,11.6,11.6
					c0,1.6-1.3,2.9-2.9,2.9h-13.8c1,1.8,2.9,2.9,5.1,2.9h2.9c1.6,0,2.9,1.3,2.9,2.9c0,1.6-1.3,2.9-2.9,2.9H141.9z M136.9,55.1H147
					c-1-1.7-2.9-2.9-5-2.9C139.7,52.1,137.9,53.3,136.9,55.1z"/>
			</g>
		</g>
		<g>
			<g>
				<path class="st5" d="M174.5,68.2c-1.7,0.9-3.6,1.5-5.6,1.5c-6.4,0-11.6-5.2-11.6-11.6v-8.7c0-1.6,1.3-2.9,2.9-2.9
					c1.6,0,2.9,1.3,2.9,2.9V58c0,3.2,2.6,5.8,5.8,5.8c3.2,0,5.8-2.6,5.8-5.8v-8.7c0-1.6,1.3-2.9,2.9-2.9c1.6,0,2.9,1.3,2.9,2.9v17.5
					c0,6.4-5.2,11.6-11.6,11.6c-3,0-6-1.1-8.2-3.4c-0.5-0.5-0.9-1.3-0.9-2c0-1.5,1.4-2.9,2.9-2.9c0.8,0,1.5,0.3,2,0.9
					c1.2,1.1,2.6,1.7,4.1,1.7C171.6,72.5,173.9,70.7,174.5,68.2z"/>
			</g>
		</g>
		<g>
			<g>
				<path class="st5" d="M196.5,46.3c6.4,0,11.6,5.2,11.6,11.6c0,2.1-0.6,4-1.5,5.8c1.1,0.5,1.9,1.6,1.9,3c0,1.8-1.5,3.3-3.3,3.3
					c-1.3,0-2.5-0.8-3-1.9c-1.7,1-3.6,1.5-5.7,1.5c-6.4,0-11.6-5.2-11.6-11.6C184.9,51.6,190.1,46.3,196.5,46.3z M196.5,63.8
					c3.2,0,5.8-2.6,5.8-5.8c0-3.2-2.6-5.8-5.8-5.8s-5.8,2.6-5.8,5.8C190.7,61.2,193.3,63.8,196.5,63.8z"/>
			</g>
		</g>
	</g>
</g>
<g>
	<path class="st6" d="M90.6,87.2v-3.7H90v-0.7h1.4v4.4H90.6z M91,81.2c0.1,0,0.2,0,0.3,0.1c0.1,0.1,0.1,0.2,0.1,0.3
		c0,0.1,0,0.2-0.1,0.3c-0.1,0.1-0.2,0.1-0.3,0.1c-0.1,0-0.2,0-0.3-0.1s-0.1-0.2-0.1-0.3s0-0.2,0.1-0.3S90.9,81.2,91,81.2z"/>
	<path class="st6" d="M96.3,87.2v-2.5c0-0.5-0.1-0.8-0.2-1s-0.4-0.3-0.7-0.3c-0.2,0-0.4,0.1-0.6,0.2s-0.3,0.2-0.4,0.4v3.3h-0.8v-4.4
		h0.5l0.2,0.6c0.3-0.4,0.7-0.6,1.3-0.6c1,0,1.4,0.6,1.4,1.8v2.7H96.3z"/>
	<path class="st6" d="M101.5,81.7c-0.2-0.1-0.3-0.1-0.4-0.1c-0.2,0-0.4,0.1-0.6,0.3c-0.2,0.2-0.2,0.4-0.2,0.7c0,0.1,0,0.2,0,0.2h0.9
		v0.7h-0.9v3.7h-0.8v-3.7h-0.6v-0.7h0.6c0-0.6,0.1-1,0.4-1.3c0.3-0.3,0.6-0.5,1.1-0.5c0.2,0,0.5,0,0.7,0.1L101.5,81.7z"/>
	<path class="st6" d="M102.9,85c0-0.7,0.2-1.2,0.5-1.6c0.4-0.4,0.8-0.6,1.4-0.6c0.6,0,1.1,0.2,1.5,0.6c0.3,0.4,0.5,1,0.5,1.7
		c0,0.7-0.2,1.3-0.5,1.7c-0.4,0.4-0.8,0.6-1.4,0.6c-0.6,0-1.1-0.2-1.5-0.6C103.1,86.3,102.9,85.7,102.9,85z M103.7,85
		c0,1.1,0.4,1.6,1.2,1.6c0.4,0,0.6-0.1,0.9-0.4c0.2-0.3,0.3-0.7,0.3-1.2c0-1.1-0.4-1.6-1.2-1.6c-0.4,0-0.6,0.1-0.8,0.4
		S103.7,84.5,103.7,85z"/>
	<path class="st6" d="M111,83.6c-0.2-0.1-0.3-0.2-0.5-0.2c-0.3,0-0.5,0.1-0.7,0.4s-0.3,0.6-0.3,0.9v2.5h-0.8v-4.4h0.8v0.7
		c0.3-0.5,0.7-0.8,1.3-0.8c0.1,0,0.3,0,0.6,0.1L111,83.6z"/>
	<path class="st6" d="M118,87.2v-2.8c0-0.7-0.3-1-0.9-1c-0.2,0-0.4,0.1-0.5,0.2s-0.3,0.2-0.3,0.4v3.2h-0.8v-3.1
		c0-0.2-0.1-0.4-0.2-0.5c-0.2-0.1-0.4-0.2-0.6-0.2c-0.2,0-0.3,0.1-0.5,0.2c-0.2,0.1-0.3,0.3-0.4,0.4v3.2h-0.8v-4.4h0.5l0.3,0.5
		c0.3-0.4,0.7-0.6,1.1-0.6c0.6,0,1.1,0.2,1.3,0.6c0.1-0.2,0.2-0.3,0.5-0.4c0.2-0.1,0.5-0.2,0.7-0.2c0.5,0,0.8,0.1,1.1,0.4
		c0.2,0.3,0.4,0.6,0.4,1.1v2.9H118z"/>
	<path class="st6" d="M123.3,86.7c-0.3,0.4-0.8,0.6-1.4,0.6c-0.3,0-0.6-0.1-0.9-0.4c-0.3-0.2-0.4-0.6-0.4-0.9c0-0.4,0.2-0.8,0.6-1.1
		s0.9-0.5,1.5-0.5c0.2,0,0.3,0,0.6,0.1c0-0.7-0.3-1.1-0.9-1.1c-0.5,0-0.9,0.1-1.1,0.4l-0.3-0.7c0.1-0.1,0.4-0.2,0.6-0.3
		s0.5-0.1,0.7-0.1c0.6,0,1.1,0.1,1.4,0.4c0.3,0.3,0.4,0.7,0.4,1.4v1.6c0,0.4,0.1,0.6,0.3,0.8v0.4c-0.3,0-0.6,0-0.7-0.1
		C123.5,87.1,123.4,86.9,123.3,86.7z M123.2,85.1c-0.2-0.1-0.4-0.1-0.5-0.1c-0.4,0-0.7,0.1-1,0.3c-0.2,0.2-0.4,0.4-0.4,0.7
		c0,0.5,0.3,0.7,0.8,0.7c0.4,0,0.7-0.2,1-0.6V85.1z"/>
	<path class="st6" d="M126.5,83.5H126v-0.6h0.5v-0.9l0.8-0.3v1.2h1.2v0.6h-1.2v2.2c0,0.4,0.1,0.6,0.2,0.8c0.1,0.2,0.3,0.2,0.6,0.2
		c0.2,0,0.4,0,0.6-0.2l0.1,0.7c-0.3,0.1-0.7,0.1-1.1,0.1c-0.3,0-0.6-0.1-0.9-0.4c-0.2-0.3-0.4-0.6-0.4-1V83.5z"/>
	<path class="st6" d="M130.8,87.2v-3.7h-0.6v-0.7h1.4v4.4H130.8z M131.3,81.2c0.1,0,0.2,0,0.3,0.1c0.1,0.1,0.1,0.2,0.1,0.3
		c0,0.1,0,0.2-0.1,0.3c-0.1,0.1-0.2,0.1-0.3,0.1c-0.1,0-0.2,0-0.3-0.1c-0.1-0.1-0.1-0.2-0.1-0.3s0-0.2,0.1-0.3
		S131.1,81.2,131.3,81.2z"/>
	<path class="st6" d="M133.5,85c0-0.7,0.2-1.2,0.5-1.6c0.4-0.4,0.8-0.6,1.4-0.6c0.6,0,1.1,0.2,1.5,0.6c0.3,0.4,0.5,1,0.5,1.7
		c0,0.7-0.2,1.3-0.5,1.7c-0.4,0.4-0.8,0.6-1.4,0.6c-0.6,0-1.1-0.2-1.5-0.6S133.5,85.7,133.5,85z M134.4,85c0,1.1,0.4,1.6,1.2,1.6
		c0.4,0,0.6-0.1,0.9-0.4c0.2-0.3,0.3-0.7,0.3-1.2c0-1.1-0.4-1.6-1.2-1.6c-0.4,0-0.6,0.1-0.8,0.4C134.5,84.1,134.4,84.5,134.4,85z"/>
	<path class="st6" d="M142,87.2v-2.5c0-0.5-0.1-0.8-0.2-1s-0.4-0.3-0.7-0.3c-0.2,0-0.4,0.1-0.6,0.2s-0.3,0.2-0.4,0.4v3.3h-0.8v-4.4
		h0.5l0.2,0.6c0.3-0.4,0.7-0.6,1.3-0.6c1,0,1.4,0.6,1.4,1.8v2.7H142z"/>
	<path class="st6" d="M148.6,83.5h-0.5v-0.6h0.5v-0.9l0.8-0.3v1.2h1.2v0.6h-1.2v2.2c0,0.4,0.1,0.6,0.2,0.8c0.1,0.2,0.3,0.2,0.6,0.2
		c0.2,0,0.4,0,0.6-0.2l0.1,0.7c-0.3,0.1-0.7,0.1-1.1,0.1c-0.3,0-0.6-0.1-0.9-0.4c-0.2-0.3-0.4-0.6-0.4-1V83.5z"/>
	<path class="st6" d="M156.3,85.1h-3.2c0,0.5,0.1,0.9,0.4,1.2c0.2,0.2,0.6,0.4,1,0.4c0.4,0,0.8-0.1,1.1-0.4l0.3,0.6
		c-0.1,0.1-0.3,0.2-0.6,0.3c-0.3,0.1-0.7,0.2-1,0.2c-0.6,0-1-0.2-1.4-0.6c-0.4-0.4-0.6-1-0.6-1.7c0-0.7,0.2-1.3,0.7-1.7
		c0.4-0.4,0.9-0.6,1.4-0.6c0.6,0,1.1,0.2,1.5,0.5c0.3,0.3,0.5,0.8,0.5,1.3C156.4,84.8,156.3,85,156.3,85.1z M154.4,83.4
		c-0.3,0-0.6,0.1-0.9,0.3c-0.2,0.2-0.4,0.5-0.4,0.8h2.4c0-0.3-0.1-0.6-0.3-0.8C155.1,83.5,154.8,83.4,154.4,83.4z"/>
	<path class="st6" d="M161.4,83.2l-0.4,0.5c-0.1-0.1-0.2-0.2-0.4-0.2c-0.2-0.1-0.4-0.1-0.6-0.1c-0.4,0-0.8,0.1-1,0.4
		s-0.4,0.7-0.4,1.2c0,0.5,0.1,0.9,0.4,1.2c0.3,0.3,0.6,0.4,1.1,0.4c0.3,0,0.7-0.1,1.1-0.4l0.3,0.7c-0.4,0.3-0.9,0.4-1.6,0.4
		c-0.6,0-1.1-0.2-1.5-0.6c-0.4-0.4-0.6-0.9-0.6-1.6c0-0.7,0.2-1.3,0.6-1.7s1-0.6,1.7-0.6c0.2,0,0.5,0,0.7,0.1S161.3,83.1,161.4,83.2
		z"/>
	<path class="st6" d="M166,87.2v-2.8c0-0.3-0.1-0.6-0.2-0.8s-0.4-0.3-0.7-0.3c-0.2,0-0.4,0.1-0.6,0.2c-0.2,0.1-0.3,0.2-0.4,0.4v3.3
		h-0.8V81h0.8v2.3c0.1-0.2,0.3-0.3,0.5-0.4c0.2-0.1,0.5-0.2,0.7-0.2c0.5,0,0.8,0.2,1.1,0.5s0.4,0.7,0.4,1.3v2.8H166z"/>
	<path class="st6" d="M171.5,87.2v-2.5c0-0.5-0.1-0.8-0.2-1s-0.4-0.3-0.7-0.3c-0.2,0-0.4,0.1-0.6,0.2s-0.3,0.2-0.4,0.4v3.3h-0.8
		v-4.4h0.5l0.2,0.6c0.3-0.4,0.7-0.6,1.3-0.6c1,0,1.4,0.6,1.4,1.8v2.7H171.5z"/>
	<path class="st6" d="M174.1,85c0-0.7,0.2-1.2,0.5-1.6c0.4-0.4,0.8-0.6,1.4-0.6c0.6,0,1.1,0.2,1.5,0.6c0.3,0.4,0.5,1,0.5,1.7
		c0,0.7-0.2,1.3-0.5,1.7c-0.4,0.4-0.8,0.6-1.4,0.6c-0.6,0-1.1-0.2-1.5-0.6S174.1,85.7,174.1,85z M174.9,85c0,1.1,0.4,1.6,1.2,1.6
		c0.4,0,0.6-0.1,0.9-0.4c0.2-0.3,0.3-0.7,0.3-1.2c0-1.1-0.4-1.6-1.2-1.6c-0.4,0-0.6,0.1-0.8,0.4C175,84.1,174.9,84.5,174.9,85z"/>
	<path class="st6" d="M179.9,86V81h0.8v4.8c0,0.2,0.1,0.4,0.2,0.6c0.1,0.1,0.3,0.2,0.5,0.2v0.7C180.4,87.3,179.9,86.9,179.9,86z"/>
	<path class="st6" d="M183,85c0-0.7,0.2-1.2,0.5-1.6c0.4-0.4,0.8-0.6,1.4-0.6c0.6,0,1.1,0.2,1.5,0.6c0.3,0.4,0.5,1,0.5,1.7
		c0,0.7-0.2,1.3-0.5,1.7c-0.4,0.4-0.8,0.6-1.4,0.6c-0.6,0-1.1-0.2-1.5-0.6S183,85.7,183,85z M183.8,85c0,1.1,0.4,1.6,1.2,1.6
		c0.4,0,0.6-0.1,0.9-0.4c0.2-0.3,0.3-0.7,0.3-1.2c0-1.1-0.4-1.6-1.2-1.6c-0.4,0-0.6,0.1-0.8,0.4C183.9,84.1,183.8,84.5,183.8,85z"/>
	<path class="st6" d="M188.5,88.4l0.4-0.6c0.5,0.3,0.9,0.5,1.3,0.5c0.4,0,0.6-0.1,0.8-0.2c0.2-0.1,0.3-0.3,0.3-0.5
		c0-0.4-0.3-0.5-0.8-0.5c-0.1,0-0.2,0-0.5,0.1c-0.2,0-0.4,0.1-0.5,0.1c-0.6,0-0.9-0.2-0.9-0.7c0-0.1,0.1-0.3,0.2-0.4
		c0.1-0.1,0.3-0.2,0.5-0.3c-0.6-0.3-0.9-0.8-0.9-1.5c0-0.5,0.2-0.8,0.5-1.1s0.7-0.5,1.2-0.5c0.4,0,0.8,0.1,1,0.3l0.4-0.5L192,83
		l-0.5,0.4c0.2,0.3,0.3,0.6,0.3,1c0,0.4-0.1,0.8-0.4,1.1c-0.3,0.3-0.6,0.5-1.1,0.5l-0.6,0.1c-0.1,0-0.2,0-0.3,0.1
		c-0.1,0-0.2,0.1-0.2,0.2c0,0.1,0.1,0.2,0.4,0.2c0.1,0,0.3,0,0.5-0.1c0.2,0,0.4-0.1,0.6-0.1c0.4,0,0.8,0.1,1,0.3
		c0.2,0.2,0.4,0.5,0.4,0.9c0,0.4-0.2,0.7-0.5,1s-0.8,0.4-1.4,0.4c-0.3,0-0.6,0-0.9-0.2C189,88.7,188.7,88.6,188.5,88.4z M190.2,83.4
		c-0.3,0-0.5,0.1-0.7,0.3c-0.2,0.2-0.3,0.4-0.3,0.7c0,0.3,0.1,0.6,0.2,0.8s0.4,0.3,0.7,0.3c0.3,0,0.5-0.1,0.6-0.3
		c0.2-0.2,0.2-0.5,0.2-0.8c0-0.3-0.1-0.5-0.3-0.7S190.4,83.4,190.2,83.4z"/>
	<path class="st6" d="M194.3,87.2v-3.7h-0.6v-0.7h1.4v4.4H194.3z M194.7,81.2c0.1,0,0.2,0,0.3,0.1c0.1,0.1,0.1,0.2,0.1,0.3
		c0,0.1,0,0.2-0.1,0.3c-0.1,0.1-0.2,0.1-0.3,0.1c-0.1,0-0.2,0-0.3-0.1c-0.1-0.1-0.1-0.2-0.1-0.3s0-0.2,0.1-0.3
		S194.5,81.2,194.7,81.2z"/>
	<path class="st6" d="M200.9,85.1h-3.2c0,0.5,0.1,0.9,0.4,1.2c0.2,0.2,0.6,0.4,1,0.4c0.4,0,0.8-0.1,1.1-0.4l0.3,0.6
		c-0.1,0.1-0.3,0.2-0.6,0.3c-0.3,0.1-0.7,0.2-1,0.2c-0.6,0-1-0.2-1.4-0.6c-0.4-0.4-0.6-1-0.6-1.7c0-0.7,0.2-1.3,0.7-1.7
		c0.4-0.4,0.9-0.6,1.4-0.6c0.6,0,1.1,0.2,1.5,0.5c0.3,0.3,0.5,0.8,0.5,1.3C201,84.8,201,85,200.9,85.1z M199,83.4
		c-0.3,0-0.6,0.1-0.9,0.3c-0.2,0.2-0.4,0.5-0.4,0.8h2.4c0-0.3-0.1-0.6-0.3-0.8C199.7,83.5,199.4,83.4,199,83.4z"/>
	<path class="st6" d="M202.5,87l0.3-0.7c0.4,0.3,0.8,0.4,1,0.4c0.5,0,0.7-0.2,0.7-0.6c0-0.3-0.2-0.5-0.7-0.7
		c-0.4-0.2-0.6-0.3-0.7-0.4c-0.1-0.1-0.2-0.2-0.3-0.3c-0.1-0.1-0.2-0.2-0.2-0.3s-0.1-0.3-0.1-0.4c0-0.4,0.1-0.6,0.4-0.8
		c0.3-0.2,0.6-0.3,1-0.3c0.3,0,0.7,0.1,1.2,0.3l-0.2,0.7c-0.3-0.2-0.6-0.4-0.9-0.4c-0.2,0-0.3,0-0.5,0.1s-0.2,0.2-0.2,0.3
		c0,0.3,0.2,0.5,0.5,0.6l0.6,0.3c0.3,0.2,0.6,0.3,0.7,0.5c0.2,0.2,0.2,0.4,0.2,0.7c0,0.4-0.1,0.7-0.4,0.9c-0.3,0.2-0.7,0.3-1.1,0.3
		C203.3,87.3,202.9,87.2,202.5,87z"/>
</g>
</svg>
